<svg width="120" height="146" viewBox="0 0 120 146" fill="none" xmlns="http://www.w3.org/2000/svg">
<g filter="url(#filter0_d_1_38)">
<g filter="url(#filter1_b_1_38)">
<circle cx="60" cy="109.604" r="28" fill="white" fill-opacity="0.2"/>
<circle cx="60" cy="109.604" r="27.5692" stroke="white" stroke-opacity="0.6" stroke-width="0.861538"/>
</g>
<circle cx="60" cy="109.604" r="9" transform="rotate(180 60 109.604)" fill="white"/>
<g filter="url(#filter2_b_1_38)">
<mask id="path-4-inside-1_1_38" fill="white">
<path fill-rule="evenodd" clip-rule="evenodd" d="M28 0C14.7452 0 4 10.7452 4 24C4 37.2548 14.7452 48 28 48H44.917C47.9333 48 50.7553 49.4885 52.4585 51.9778C56.0874 57.2816 63.9126 57.2816 67.5415 51.9778C69.2447 49.4885 72.0667 48 75.083 48H92C105.255 48 116 37.2548 116 24C116 10.7452 105.255 0 92 0H28Z"/>
</mask>
<path fill-rule="evenodd" clip-rule="evenodd" d="M28 0C14.7452 0 4 10.7452 4 24C4 37.2548 14.7452 48 28 48H44.917C47.9333 48 50.7553 49.4885 52.4585 51.9778C56.0874 57.2816 63.9126 57.2816 67.5415 51.9778C69.2447 49.4885 72.0667 48 75.083 48H92C105.255 48 116 37.2548 116 24C116 10.7452 105.255 0 92 0H28Z" fill="white" fill-opacity="0.2"/>
<path d="M4.86154 24C4.86154 11.221 15.221 0.861538 28 0.861538V-0.861538C14.2694 -0.861538 3.13846 10.2694 3.13846 24H4.86154ZM28 47.1385C15.221 47.1385 4.86154 36.779 4.86154 24H3.13846C3.13846 37.7306 14.2694 48.8615 28 48.8615V47.1385ZM44.917 47.1385H28V48.8615H44.917V47.1385ZM92 47.1385H75.083V48.8615H92V47.1385ZM115.138 24C115.138 36.779 104.779 47.1385 92 47.1385V48.8615C105.731 48.8615 116.862 37.7306 116.862 24H115.138ZM92 0.861538C104.779 0.861538 115.138 11.221 115.138 24H116.862C116.862 10.2694 105.731 -0.861538 92 -0.861538V0.861538ZM28 0.861538H92V-0.861538H28V0.861538ZM68.2525 52.4643C69.7952 50.2097 72.3511 48.8615 75.083 48.8615V47.1385C71.7823 47.1385 68.6943 48.7673 66.8305 51.4913L68.2525 52.4643ZM51.7475 52.4643C55.7185 58.2682 64.2815 58.2682 68.2525 52.4643L66.8305 51.4913C63.5437 56.295 56.4563 56.295 53.1695 51.4913L51.7475 52.4643ZM44.917 48.8615C47.6489 48.8615 50.2048 50.2097 51.7475 52.4643L53.1695 51.4913C51.3057 48.7673 48.2177 47.1385 44.917 47.1385V48.8615Z" fill="white" fill-opacity="0.6" mask="url(#path-4-inside-1_1_38)"/>
</g>
<g filter="url(#filter3_d_1_38)">
<circle cx="28" cy="24" r="12" transform="rotate(180 28 24)" fill="#E58411"/>
<circle cx="28" cy="24" r="11" transform="rotate(180 28 24)" stroke="white" stroke-width="2"/>
</g>
<g filter="url(#filter4_d_1_38)">
<path d="M31.341 20.5913C31.4995 20.4404 31.7104 20.357 31.9292 20.3587C32.148 20.3603 32.3576 20.4469 32.5138 20.6002C32.6699 20.7534 32.7605 20.9614 32.7662 21.1801C32.772 21.3988 32.6926 21.6113 32.5447 21.7725L28.056 27.3863C27.9788 27.4694 27.8857 27.5361 27.7821 27.5825C27.6785 27.6288 27.5667 27.6537 27.4533 27.6558C27.3399 27.6579 27.2272 27.6371 27.122 27.5947C27.0168 27.5522 26.9212 27.489 26.841 27.4088L23.8643 24.432C23.7814 24.3548 23.7149 24.2617 23.6687 24.1582C23.6226 24.0547 23.5978 23.9429 23.5958 23.8296C23.5938 23.7163 23.6147 23.6038 23.6571 23.4987C23.6995 23.3937 23.7627 23.2982 23.8428 23.2181C23.923 23.138 24.0184 23.0748 24.1235 23.0324C24.2285 22.99 24.341 22.9691 24.4543 22.9711C24.5676 22.9731 24.6794 22.9979 24.7829 23.044C24.8864 23.0902 24.9795 23.1566 25.0567 23.2395L27.4125 25.5942L31.3196 20.616C31.3267 20.6074 31.3342 20.5991 31.3421 20.5913H31.341Z" fill="white"/>
</g>
<g filter="url(#filter5_d_1_38)">
<circle cx="60" cy="24" r="12" transform="rotate(180 60 24)" fill="#00D6C9"/>
<circle cx="60" cy="24" r="11" transform="rotate(180 60 24)" stroke="white" stroke-width="2"/>
</g>
<g filter="url(#filter6_d_1_38)">
<circle cx="92" cy="24" r="12" transform="rotate(180 92 24)" fill="#7C7C7C"/>
<circle cx="92" cy="24" r="11" transform="rotate(180 92 24)" stroke="white" stroke-width="2"/>
</g>
</g>
<defs>
<filter id="filter0_d_1_38" x="0" y="0" width="120" height="145.604" filterUnits="userSpaceOnUse" color-interpolation-filters="sRGB">
<feFlood flood-opacity="0" result="BackgroundImageFix"/>
<feColorMatrix in="SourceAlpha" type="matrix" values="0 0 0 0 0 0 0 0 0 0 0 0 0 0 0 0 0 0 127 0" result="hardAlpha"/>
<feOffset dy="4"/>
<feGaussianBlur stdDeviation="2"/>
<feComposite in2="hardAlpha" operator="out"/>
<feColorMatrix type="matrix" values="0 0 0 0 0 0 0 0 0 0 0 0 0 0 0 0 0 0 0.25 0"/>
<feBlend mode="normal" in2="BackgroundImageFix" result="effect1_dropShadow_1_38"/>
<feBlend mode="normal" in="SourceGraphic" in2="effect1_dropShadow_1_38" result="shape"/>
</filter>
<filter id="filter1_b_1_38" x="24" y="73.6035" width="72" height="72" filterUnits="userSpaceOnUse" color-interpolation-filters="sRGB">
<feFlood flood-opacity="0" result="BackgroundImageFix"/>
<feGaussianBlur in="BackgroundImageFix" stdDeviation="4"/>
<feComposite in2="SourceAlpha" operator="in" result="effect1_backgroundBlur_1_38"/>
<feBlend mode="normal" in="SourceGraphic" in2="effect1_backgroundBlur_1_38" result="shape"/>
</filter>
<filter id="filter2_b_1_38" x="-4" y="-8" width="128" height="71.9556" filterUnits="userSpaceOnUse" color-interpolation-filters="sRGB">
<feFlood flood-opacity="0" result="BackgroundImageFix"/>
<feGaussianBlur in="BackgroundImageFix" stdDeviation="4"/>
<feComposite in2="SourceAlpha" operator="in" result="effect1_backgroundBlur_1_38"/>
<feBlend mode="normal" in="SourceGraphic" in2="effect1_backgroundBlur_1_38" result="shape"/>
</filter>
<filter id="filter3_d_1_38" x="10" y="10" width="36" height="36" filterUnits="userSpaceOnUse" color-interpolation-filters="sRGB">
<feFlood flood-opacity="0" result="BackgroundImageFix"/>
<feColorMatrix in="SourceAlpha" type="matrix" values="0 0 0 0 0 0 0 0 0 0 0 0 0 0 0 0 0 0 127 0" result="hardAlpha"/>
<feOffset dy="4"/>
<feGaussianBlur stdDeviation="3"/>
<feComposite in2="hardAlpha" operator="out"/>
<feColorMatrix type="matrix" values="0 0 0 0 0 0 0 0 0 0 0 0 0 0 0 0 0 0 0.1 0"/>
<feBlend mode="normal" in2="BackgroundImageFix" result="effect1_dropShadow_1_38"/>
<feBlend mode="normal" in="SourceGraphic" in2="effect1_dropShadow_1_38" result="shape"/>
</filter>
<filter id="filter4_d_1_38" x="15" y="15" width="26" height="26" filterUnits="userSpaceOnUse" color-interpolation-filters="sRGB">
<feFlood flood-opacity="0" result="BackgroundImageFix"/>
<feColorMatrix in="SourceAlpha" type="matrix" values="0 0 0 0 0 0 0 0 0 0 0 0 0 0 0 0 0 0 127 0" result="hardAlpha"/>
<feOffset dy="4"/>
<feGaussianBlur stdDeviation="2"/>
<feComposite in2="hardAlpha" operator="out"/>
<feColorMatrix type="matrix" values="0 0 0 0 0 0 0 0 0 0 0 0 0 0 0 0 0 0 0.25 0"/>
<feBlend mode="normal" in2="BackgroundImageFix" result="effect1_dropShadow_1_38"/>
<feBlend mode="normal" in="SourceGraphic" in2="effect1_dropShadow_1_38" result="shape"/>
</filter>
<filter id="filter5_d_1_38" x="42" y="10" width="36" height="36" filterUnits="userSpaceOnUse" color-interpolation-filters="sRGB">
<feFlood flood-opacity="0" result="BackgroundImageFix"/>
<feColorMatrix in="SourceAlpha" type="matrix" values="0 0 0 0 0 0 0 0 0 0 0 0 0 0 0 0 0 0 127 0" result="hardAlpha"/>
<feOffset dy="4"/>
<feGaussianBlur stdDeviation="3"/>
<feComposite in2="hardAlpha" operator="out"/>
<feColorMatrix type="matrix" values="0 0 0 0 0 0 0 0 0 0 0 0 0 0 0 0 0 0 0.1 0"/>
<feBlend mode="normal" in2="BackgroundImageFix" result="effect1_dropShadow_1_38"/>
<feBlend mode="normal" in="SourceGraphic" in2="effect1_dropShadow_1_38" result="shape"/>
</filter>
<filter id="filter6_d_1_38" x="74" y="10" width="36" height="36" filterUnits="userSpaceOnUse" color-interpolation-filters="sRGB">
<feFlood flood-opacity="0" result="BackgroundImageFix"/>
<feColorMatrix in="SourceAlpha" type="matrix" values="0 0 0 0 0 0 0 0 0 0 0 0 0 0 0 0 0 0 127 0" result="hardAlpha"/>
<feOffset dy="4"/>
<feGaussianBlur stdDeviation="3"/>
<feComposite in2="hardAlpha" operator="out"/>
<feColorMatrix type="matrix" values="0 0 0 0 0 0 0 0 0 0 0 0 0 0 0 0 0 0 0.1 0"/>
<feBlend mode="normal" in2="BackgroundImageFix" result="effect1_dropShadow_1_38"/>
<feBlend mode="normal" in="SourceGraphic" in2="effect1_dropShadow_1_38" result="shape"/>
</filter>
</defs>
</svg>
